P3
4 5
255
0 0 0 255 255 250 0 0 0 0 0 0 
0 0 0 0 0 0 0 0 0 0 0 0 
255 255 250 126 66 0 126 66 0 255 255 250 
0 0 0 0 0 0 0 0 0 0 0 0 
126 66 0 0 0 0 0 0 0 126 66 0 
